# xmcd CD database file
#
# Track frame offsets:
#	150
#	14025
#	33151
#	49658
#	67282
#	83172
#	95898
#	114387
#	133271
#	150171
#	168875
#	189806
#	207714
#	227245
#	245504
#	265386
#	280610
#	292639
#	308637
#	327190
#
# Disc length: 4583 seconds
#
# Revision: 0
# Processed by: cddbd v1.5.2PL0 Copyright (c) Steve Scherf et al.
# Submitted via: CDex 1.51
#
DISCID=1711e514
DTITLE=The Real Book Play-Along - Volume II
DYEAR=2010
DGENRE=Jazz
TTITLE0=Get Me To The Church On Time
TTITLE1=Get Out Of Town
TTITLE2=The Gift! (Recado Bossa Nova)
TTITLE3=Girl Talk
TTITLE4=Gravy Waltz
TTITLE5=Hallucinations
TTITLE6=Head And Shoulders
TTITLE7=Hocus-Pocus
TTITLE8=Holy Land
TTITLE9=Honeysuckle Rose
TTITLE10=I Believe In You
TTITLE11=I Don't Stand A Ghost Of A Chance
TTITLE12=I Get Along Without You Very Well (Except Sometimes)
TTITLE13=I Have Dreamed
TTITLE14=I Hear A Rhapsody
TTITLE15=I Remember Bird
TTITLE16=I Remember You
TTITLE17=I Thought About You
TTITLE18=I Will Wait For You
TTITLE19=I Wish I Didn't Love You So
EXTD=YEAR: 2010
EXTT0=
EXTT1=
EXTT2=
EXTT3=
EXTT4=
EXTT5=
EXTT6=
EXTT7=
EXTT8=
EXTT9=
EXTT10=
EXTT11=
EXTT12=
EXTT13=
EXTT14=
EXTT15=
EXTT16=
EXTT17=
EXTT18=
EXTT19=
PLAYORDER=
